<svg xmlns="http://www.w3.org/2000/svg" viewBox="0 0 48 48" width="144" height="144">
    <path d="M 24.106 16 C 15.78 15.989 10.156 17.752 6.237 21.207 C 4.588 22.661 3.815 24.813 4.206 26.865 L 4.6 28.936 C 4.97 30.876 6.786 32.178 8.842 31.98 L 12.934 31.586 C 14.718 31.414 16.238 30.149 16.692 28.459 L 17.934 24.189 C 19.803 23.423 22.106 23 24.106 23 C 26.106 23 28.197 23.372 30.065 24.137 L 31.309 28.406 C 31.763 30.096 33.284 31.361 35.067 31.533 L 39.159 31.928 C 41.215 32.126 43.029 30.825 43.399 28.885 L 43.794 26.814 C 44.185 24.762 43.413 22.608 41.764 21.154 C 37.846 17.698 32.432 16.011 24.106 16 Z" fill="#FFFFFF"></path>
</svg>